<?xml version="1.0" encoding="UTF-8"?>
<svg xmlns="http://www.w3.org/2000/svg" id="Layer_1" data-name="Layer 1" viewBox="0 0 789.1 195.64">
  <defs>
    <style>.cls-1{fill:#fff;}</style>
  </defs>
  <title>MDB-HLogo_White</title>
  <path class="cls-1" d="M378.08,69.53,396.6,141h-14L370.26,89.54,347.09,141H335.3L312.23,89.84,299.55,141H285.89l18.32-71.5h12.08l24.95,55.36L366.1,69.53Z" transform="translate(0 -2.9)"></path>
  <path class="cls-1" d="M449.27,97.16V88.85h13.47V141H449.27v-8.41c-3.56,6-10.89,9.5-19.8,9.5-18.62,0-29-13.07-29-28.22,0-14.56,9.9-26.24,27-26.24C437.29,87.66,445.41,91,449.27,97.16Zm-34.46,17.43c0,9.61,6,17.83,17.72,17.83,11.29,0,17.43-8,17.43-17.53s-6.33-17.63-18-17.63C420.65,97.26,414.81,105.38,414.81,114.59Z" transform="translate(0 -2.9)"></path>
  <path class="cls-1" d="M493.13,141H479.66V88.85h13.47v11.68c3.56-8,10.79-12.87,18.81-12.87A24.19,24.19,0,0,1,520.36,89L517.49,99a29.17,29.17,0,0,0-7.13-1c-9.71,0-17.23,7.32-17.23,18.12Z" transform="translate(0 -2.9)"></path>
  <path class="cls-1" d="M527.09,75.08a6.85,6.85,0,0,1,7.23-7,7.1,7.1,0,0,1,7.33,7.23c0,3.46-2.38,6.93-7.33,6.93A6.93,6.93,0,0,1,527.09,75.08Zm.59,13.77h13.47V127c0,2.38.5,4.06,2.48,4.06a15.18,15.18,0,0,0,2.57-.29l2.08,9.8a23.72,23.72,0,0,1-8.91,1.58c-5.65,0-11.69-1.68-11.69-14.45Z" transform="translate(0 -2.9)"></path>
  <path class="cls-1" d="M601.36,97.16V88.85h13.46V141H601.36v-8.41c-3.57,6-10.9,9.5-19.81,9.5-18.62,0-29-13.07-29-28.22,0-14.56,9.91-26.24,27-26.24C589.37,87.66,597.49,91,601.36,97.16Zm-34.47,17.43c0,9.61,6,17.83,17.73,17.83,11.29,0,17.43-8,17.43-17.53s-6.34-17.63-18-17.63C572.74,97.26,566.89,105.38,566.89,114.59Z" transform="translate(0 -2.9)"></path>
  <path class="cls-1" d="M635.51,69.53H667.8c27.13,0,40.7,15,40.5,35.75.2,21.59-14.76,35.75-38.13,35.75H635.51Zm8.91,6.34V134.8H669c21.59,0,29.81-14.56,29.81-29.71,0-17.13-10.3-29.22-29.81-29.22Z" transform="translate(0 -2.9)"></path>
  <path class="cls-1" d="M763.35,141h-41V69.53h36.94c14.16,0,27.63,2.68,27.43,18.52,0,11.19-6.93,14.26-14.26,15.45,10.4.89,16.64,7.53,16.64,18.22C789.19,137.77,775.13,141,763.35,141Zm-3.07-40.3c14.16,0,17.33-5.45,17.33-12.38,0-10.4-6.34-12.77-17.33-12.77H730.87v25.15Zm.39,6h-29.8V135H762c8.72,0,17.93-2.87,17.93-13.86C779.89,108.45,769.29,106.77,760.67,106.77Z" transform="translate(0 -2.9)"></path>
  <path class="cls-1" d="M299.2,3.87a4.36,4.36,0,0,0-2.92-1c-2.9,0-6.65,2-8.66,3-.35.18-.62.33-.81.41A27.32,27.32,0,0,1,276,9.06c-3.86.12-7.19.35-11.5.79-25.66,2.64-37.05,22.28-48.06,41.27-6,10.33-12.18,21-20.67,29.28a55,55,0,0,1-5.59,4.75c-8.78,6.54-19.81,11.17-28.43,14.47-8.26,3.15-17.28,6-26,8.74-8,2.51-15.51,4.88-22.44,7.46-3.13,1.16-5.79,2.05-8.13,2.83-6.31,2.1-10.87,3.62-17.51,8.16-2.59,1.78-5.19,3.7-7,5.14A73.49,73.49,0,0,0,66.8,146.58a87.05,87.05,0,0,1-11.6,14c-1.4,1.37-3.89,2-7.62,2-4.37,0-9.67-.9-15.28-1.86-5.77-1-11.75-2-16.87-2-4.17,0-7.35.68-9.74,2.06,0,0-4,2.34-5.69,5.36l1.66.76A34.33,34.33,0,0,1,8.76,172a35.39,35.39,0,0,0,7.37,5.25,6.61,6.61,0,0,1,2.27,1.51c-.7,1-1.73,2.35-2.8,3.76-5.92,7.74-9.37,12.63-7.39,15.29a6.15,6.15,0,0,0,3,.7c12.9,0,19.82-3.35,28.59-7.59,2.54-1.23,5.16-2.5,8.16-3.8,5.12-2.22,10.64-5.77,16.48-9.52,7.74-5,15.74-10.12,23.49-12.6a63.71,63.71,0,0,1,19.71-2.77c8.23,0,16.83,1.1,25.15,2.16,6.21.8,12.63,1.62,18.93,2,2.45.15,4.72.22,6.92.22a77.2,77.2,0,0,0,8.83-.47l.7-.24c4.42-2.72,6.49-8.55,8.5-14.19,1.29-3.62,2.37-6.88,4.05-9a2.1,2.1,0,0,1,.34-.28.41.41,0,0,1,.5.08s0,0,0,.16c-1.06,22.05-9.9,36.05-18.88,48.49l-6,6.43s8.39,0,13.16-1.84c17.42-5.22,30.58-16.69,40.15-35a148.57,148.57,0,0,0,6.32-14.45c.16-.41,1.68-1.16,1.53,1,0,.63-.09,1.33-.14,2h0c0,.44-.06.88-.08,1.32-.25,3-1,9.57-1,9.57l5.38-2.88c13-8.23,23-24.74,30.56-50.48,3.16-10.71,5.47-21.36,7.51-30.75,2.44-11.24,4.55-20.94,7-24.69,3.78-5.88,9.55-9.86,15.13-13.72l2.28-1.58c7-4.93,14-10.62,15.54-21.22l0-.24C301.22,6.81,300.27,4.8,299.2,3.87Z" transform="translate(0 -2.9)"></path>
</svg>